<?xml version="1.0" encoding="utf-8"?>
<!-- Generator: Adobe Illustrator 24.0.0, SVG Export Plug-In . SVG Version: 6.00 Build 0)  -->
<svg version="1.1" id="레이어_1" xmlns="http://www.w3.org/2000/svg" xmlns:xlink="http://www.w3.org/1999/xlink" x="0px"
	 y="0px" viewBox="0 0 240.94 56.69" style="enable-background:new 0 0 240.94 56.69;" xml:space="preserve">
<style type="text/css">
	.st0{fill:#FFFFFF;}
</style>
<g>
	<g>
		<path class="st0" d="M24.96,51.15c-0.8,0-1.45-0.65-1.45-1.45V18.63c0-0.8,0.65-1.45,1.45-1.45s1.45,0.65,1.45,1.45V49.7
			C26.41,50.5,25.76,51.15,24.96,51.15z"/>
		<g>
			<path class="st0" d="M44.22,20.08H24.98c-0.55,0-1.05-0.31-1.29-0.8c-0.25-0.49-0.2-1.07,0.13-1.51l9.57-12.89
				c0.27-0.37,0.7-0.58,1.16-0.58c0,0,0,0,0,0c0.46,0,0.88,0.21,1.16,0.58l9.67,12.89c0.33,0.44,0.38,1.03,0.14,1.52
				C45.27,19.77,44.77,20.08,44.22,20.08z M27.85,17.18h13.47l-6.77-9.02L27.85,17.18z"/>
			<path class="st0" d="M44.21,51.15c-0.8,0-1.45-0.65-1.45-1.45V18.63c0-0.8,0.65-1.45,1.45-1.45s1.45,0.65,1.45,1.45V49.7
				C45.65,50.5,45,51.15,44.21,51.15z"/>
			<path class="st0" d="M44.22,39.41H24.98c-0.8,0-1.45-0.65-1.45-1.45s0.65-1.45,1.45-1.45h19.24c0.8,0,1.45,0.65,1.45,1.45
				S45.02,39.41,44.22,39.41z"/>
			<path class="st0" d="M44.22,44.57H24.98c-0.8,0-1.45-0.65-1.45-1.45s0.65-1.45,1.45-1.45h19.24c0.8,0,1.45,0.65,1.45,1.45
				S45.02,44.57,44.22,44.57z"/>
		</g>
		<g>
			<path class="st0" d="M11.66,43.12"/>
			<path class="st0" d="M24.96,25.17"/>
			<path class="st0" d="M14.54,49.1"/>
			<path class="st0" d="M24.96,33.9"/>
			<path class="st0" d="M18.15,46.11"/>
			<path class="st0" d="M13.56,50.55H6.21c-2.45,0-4.44-1.99-4.44-4.44c0-2.45,1.99-4.44,4.44-4.44h4.43c0.25,0,0.48-0.08,0.66-0.24
				l12.41-17.2l2.35,1.69L13.56,43.24c-0.05,0.06-0.1,0.12-0.15,0.18c-0.74,0.74-1.73,1.15-2.78,1.15H6.21
				c-0.85,0-1.54,0.69-1.54,1.54c0,0.85,0.69,1.54,1.54,1.54h7.36c0.21,0,0.41-0.07,0.57-0.2l9.75-13.63l2.35,1.68l-9.83,13.75
				c-0.05,0.06-0.1,0.13-0.15,0.18C15.53,50.15,14.58,50.55,13.56,50.55z"/>
		</g>
		<path class="st0" d="M34.58,34.27c-3.47,0-6.29-2.82-6.29-6.29c0-3.47,2.82-6.29,6.29-6.29c3.47,0,6.29,2.82,6.29,6.29
			C40.87,31.44,38.05,34.27,34.58,34.27z M34.58,24.58c-1.87,0-3.4,1.52-3.4,3.4s1.52,3.4,3.4,3.4c1.87,0,3.4-1.52,3.4-3.4
			S36.45,24.58,34.58,24.58z"/>
	</g>
</g>
<g>
	<g>
		<path class="st0" d="M61.18,46.85h-7.74v-30.4h7.74c2.7,0,5.05,0.36,7.03,1.09c1.99,0.73,3.63,1.75,4.92,3.06
			c1.3,1.31,2.26,2.89,2.88,4.74c0.62,1.85,0.93,3.88,0.93,6.1c0,2.43-0.36,4.6-1.09,6.5c-0.73,1.9-1.78,3.52-3.14,4.84
			c-1.36,1.32-3.02,2.33-4.96,3.02C65.8,46.51,63.61,46.85,61.18,46.85z M60.73,18.36h-5.03v26.59h4.78c2.22,0,4.2-0.29,5.94-0.87
			c1.74-0.58,3.22-1.44,4.44-2.57c1.22-1.13,2.15-2.55,2.8-4.24c0.65-1.69,0.97-3.63,0.97-5.82c0-4.22-1.15-7.45-3.45-9.71
			C68.89,19.49,65.41,18.36,60.73,18.36z"/>
		<path class="st0" d="M61.18,47.72h-7.74c-0.48,0-0.87-0.39-0.87-0.87v-30.4c0-0.48,0.39-0.87,0.87-0.87h7.74
			c2.79,0,5.26,0.39,7.33,1.15c2.1,0.77,3.86,1.87,5.24,3.26c1.38,1.4,2.42,3.11,3.08,5.08c0.65,1.93,0.98,4.08,0.98,6.38
			c0,2.53-0.39,4.82-1.15,6.82c-0.77,2.01-1.9,3.75-3.35,5.16c-1.45,1.41-3.22,2.49-5.28,3.22C66,47.36,63.7,47.72,61.18,47.72z
			 M54.3,45.98h6.87c2.32,0,4.43-0.33,6.28-0.98c1.82-0.64,3.38-1.59,4.65-2.82c1.27-1.23,2.26-2.75,2.94-4.53
			c0.69-1.8,1.04-3.88,1.04-6.19c0-2.11-0.3-4.07-0.89-5.82c-0.58-1.72-1.48-3.2-2.67-4.41c-1.2-1.21-2.75-2.17-4.61-2.86
			c-1.88-0.69-4.15-1.04-6.73-1.04H54.3V45.98z M60.49,45.82h-4.78c-0.48,0-0.87-0.39-0.87-0.87V18.36c0-0.48,0.39-0.87,0.87-0.87
			h5.03c4.89,0,8.61,1.22,11.07,3.63c2.46,2.42,3.71,5.89,3.71,10.33c0,2.29-0.35,4.35-1.03,6.13c-0.69,1.81-1.71,3.34-3.01,4.56
			c-1.3,1.22-2.9,2.14-4.76,2.76C64.88,45.51,62.79,45.82,60.49,45.82z M56.57,44.08h3.91c2.11,0,4.02-0.28,5.66-0.83
			c1.61-0.54,3-1.34,4.12-2.38c1.11-1.04,1.98-2.35,2.58-3.91c0.61-1.58,0.92-3.43,0.92-5.51c0-3.95-1.07-7.01-3.19-9.09
			c-2.12-2.08-5.43-3.14-9.85-3.14h-4.16V44.08z"/>
	</g>
</g>
<g>
	<g>
		<path class="st0" d="M102.06,46.89H83.62V16.41h18.4v2.03H85.89v10.9h15v2.03h-15v13.5h16.17V46.89z"/>
		<path class="st0" d="M102.06,47.76H83.62c-0.48,0-0.87-0.39-0.87-0.87V16.41c0-0.48,0.39-0.87,0.87-0.87h18.4
			c0.48,0,0.87,0.39,0.87,0.87v2.03c0,0.48-0.39,0.87-0.87,0.87H86.75v9.17h14.13c0.48,0,0.87,0.39,0.87,0.87v2.03
			c0,0.48-0.39,0.87-0.87,0.87H86.75V44h15.3c0.48,0,0.87,0.39,0.87,0.87v2.03C102.93,47.37,102.54,47.76,102.06,47.76z
			 M84.48,46.02h16.7v-0.29h-15.3c-0.48,0-0.87-0.39-0.87-0.87v-13.5c0-0.48,0.39-0.87,0.87-0.87h14.13v-0.29H85.89
			c-0.48,0-0.87-0.39-0.87-0.87v-10.9c0-0.48,0.39-0.87,0.87-0.87h15.26v-0.29H84.48V46.02z"/>
	</g>
</g>
<g>
	<g>
		<path class="st0" d="M125.43,44.83v2.03h-16.82v-30.4h2.31v28.37H125.43z"/>
		<path class="st0" d="M125.43,47.72h-16.82c-0.48,0-0.87-0.39-0.87-0.87v-30.4c0-0.48,0.39-0.87,0.87-0.87h2.31
			c0.48,0,0.87,0.39,0.87,0.87v27.5h13.64c0.48,0,0.87,0.39,0.87,0.87v2.03C126.3,47.33,125.91,47.72,125.43,47.72z M109.48,45.98
			h15.08v-0.29h-13.64c-0.48,0-0.87-0.39-0.87-0.87v-27.5h-0.57V45.98z"/>
	</g>
</g>
<g>
	<g>
		<path class="st0" d="M133.52,16.45v30.4h-2.39v-30.4H133.52z"/>
		<path class="st0" d="M133.52,47.72h-2.39c-0.48,0-0.87-0.39-0.87-0.87v-30.4c0-0.48,0.39-0.87,0.87-0.87h2.39
			c0.48,0,0.87,0.39,0.87,0.87v30.4C134.39,47.33,134,47.72,133.52,47.72z M132,45.98h0.65V17.32H132V45.98z"/>
	</g>
</g>
<g>
	<g>
		<path class="st0" d="M160.58,44.83l-0.04-4.13V16.45h2.27v30.4h-3.45l-13.5-24.44l-1.9-3.93l0.04,4.13v24.24h-2.27v-30.4h3.45
			l13.5,24.44L160.58,44.83z"/>
		<path class="st0" d="M162.81,47.72h-3.45c-0.32,0-0.61-0.17-0.76-0.45l-13.5-24.44l-0.24-0.49l0,0.27v24.25
			c0,0.48-0.39,0.87-0.87,0.87h-2.27c-0.48,0-0.87-0.39-0.87-0.87v-30.4c0-0.48,0.39-0.87,0.87-0.87h3.45
			c0.32,0,0.61,0.17,0.76,0.45l13.5,24.44l0.24,0.49l0-0.27V16.45c0-0.48,0.39-0.87,0.87-0.87h2.27c0.48,0,0.87,0.39,0.87,0.87v30.4
			C163.68,47.33,163.29,47.72,162.81,47.72z M159.88,45.98h2.06V17.32h-0.53v23.37l0.04,4.13c0,0.41-0.27,0.76-0.67,0.85
			c-0.4,0.09-0.8-0.1-0.98-0.47l-1.9-3.93l-13.23-23.95h-2.06v28.66h0.53V22.62l-0.04-4.13c0-0.41,0.27-0.76,0.67-0.85
			c0.4-0.09,0.8,0.1,0.98,0.47l1.9,3.93L159.88,45.98z"/>
	</g>
</g>
<g>
	<g>
		<path class="st0" d="M182.7,47.18c-2.13,0-4.01-0.39-5.63-1.16c-1.62-0.77-2.98-1.84-4.07-3.22c-1.09-1.38-1.92-3.02-2.47-4.92
			c-0.55-1.9-0.83-3.99-0.83-6.26c0-2.27,0.28-4.36,0.83-6.26c0.55-1.9,1.38-3.55,2.47-4.92c1.09-1.38,2.45-2.46,4.07-3.24
			c1.62-0.78,3.5-1.18,5.63-1.18c2.11,0,3.98,0.39,5.61,1.18c1.63,0.78,3.01,1.87,4.11,3.26c1.11,1.39,1.95,3.04,2.51,4.94
			c0.57,1.9,0.85,3.99,0.85,6.26s-0.28,4.35-0.85,6.24c-0.57,1.89-1.41,3.53-2.51,4.9c-1.11,1.38-2.48,2.45-4.11,3.22
			C186.67,46.79,184.8,47.18,182.7,47.18z M182.65,45.15c1.76,0,3.31-0.34,4.66-1.01c1.35-0.68,2.48-1.61,3.38-2.82
			c0.91-1.2,1.59-2.62,2.05-4.26c0.46-1.63,0.69-3.42,0.69-5.37c0-1.97-0.23-3.79-0.69-5.45c-0.46-1.66-1.14-3.1-2.05-4.32
			c-0.91-1.22-2.03-2.17-3.38-2.86c-1.35-0.69-2.91-1.03-4.66-1.03c-1.76,0-3.3,0.34-4.62,1.03c-1.32,0.69-2.43,1.64-3.32,2.86
			c-0.89,1.22-1.57,2.65-2.03,4.32c-0.46,1.66-0.69,3.48-0.69,5.45c0,1.95,0.23,3.74,0.69,5.37c0.46,1.64,1.13,3.05,2.03,4.26
			c0.89,1.2,2,2.14,3.32,2.82C179.36,44.81,180.9,45.15,182.65,45.15z"/>
		<path class="st0" d="M182.7,48.05c-2.25,0-4.28-0.42-6.01-1.24c-1.73-0.82-3.21-1.99-4.38-3.47c-1.16-1.46-2.04-3.22-2.63-5.22
			c-0.57-1.97-0.87-4.16-0.87-6.5s0.29-4.53,0.87-6.5c0.58-2,1.47-3.76,2.63-5.22c1.17-1.47,2.64-2.65,4.38-3.48
			c1.73-0.84,3.76-1.26,6.01-1.26c2.23,0,4.24,0.42,5.99,1.26c1.75,0.84,3.23,2.02,4.42,3.5c1.17,1.47,2.07,3.24,2.67,5.24
			c0.59,1.98,0.89,4.17,0.89,6.51c0,2.34-0.3,4.53-0.89,6.49c-0.6,1.99-1.49,3.74-2.67,5.2c-1.19,1.48-2.67,2.64-4.42,3.46
			C186.93,47.63,184.92,48.05,182.7,48.05z M182.7,16.88c-1.99,0-3.76,0.37-5.26,1.09c-1.5,0.72-2.76,1.73-3.77,3
			c-1.02,1.28-1.8,2.84-2.32,4.63c-0.53,1.82-0.8,3.84-0.8,6.02s0.27,4.2,0.8,6.02c0.52,1.79,1.3,3.34,2.32,4.63
			c1.01,1.27,2.27,2.27,3.77,2.98c1.5,0.71,3.27,1.07,5.26,1.07c1.97,0,3.73-0.36,5.24-1.07c1.51-0.71,2.79-1.71,3.81-2.98
			c1.03-1.28,1.83-2.84,2.36-4.61c0.54-1.8,0.81-3.82,0.81-5.99s-0.27-4.2-0.81-6.01c-0.53-1.79-1.33-3.35-2.36-4.65
			c-1.02-1.28-2.3-2.3-3.81-3.02C186.42,17.24,184.66,16.88,182.7,16.88z M182.65,46.02c-1.89,0-3.58-0.37-5.02-1.11
			c-1.44-0.73-2.66-1.77-3.63-3.07c-0.95-1.28-1.68-2.81-2.17-4.54c-0.48-1.7-0.72-3.59-0.72-5.6c0-2.04,0.24-3.96,0.72-5.68
			c0.48-1.76,1.21-3.3,2.16-4.6c0.97-1.32,2.19-2.37,3.62-3.11c1.44-0.75,3.13-1.13,5.02-1.13c1.89,0,3.59,0.38,5.06,1.13
			c1.46,0.75,2.7,1.79,3.69,3.11c0.96,1.3,1.7,2.84,2.19,4.6c0.48,1.73,0.72,3.64,0.72,5.68c0,2.01-0.24,3.9-0.72,5.61
			c-0.49,1.73-1.22,3.26-2.19,4.54c-0.98,1.31-2.22,2.34-3.69,3.07C186.24,45.65,184.54,46.02,182.65,46.02z M182.65,18.9
			c-1.61,0-3.03,0.31-4.22,0.94c-1.2,0.62-2.22,1.5-3.02,2.6c-0.83,1.13-1.46,2.48-1.89,4.03c-0.44,1.58-0.66,3.33-0.66,5.22
			c0,1.86,0.22,3.59,0.66,5.13c0.43,1.53,1.06,2.86,1.89,3.97c0.81,1.09,1.82,1.95,3.02,2.56c1.19,0.61,2.62,0.92,4.23,0.92
			c1.61,0,3.05-0.31,4.27-0.92c1.22-0.61,2.26-1.47,3.08-2.56c0.84-1.11,1.48-2.44,1.9-3.97c0.44-1.55,0.66-3.28,0.66-5.14
			c0-1.88-0.22-3.64-0.66-5.22c-0.43-1.55-1.07-2.91-1.91-4.03c-0.82-1.1-1.86-1.98-3.08-2.6C185.7,19.22,184.26,18.9,182.65,18.9z"
			/>
	</g>
</g>
<g>
	<g>
		<path class="st0" d="M214.5,33.52v0.04l7.78,13.29h-2.84l-7.05-12.81h-7.46v12.81h-2.27v-30.4h8.47c3.35,0,5.9,0.77,7.64,2.31
			c1.74,1.54,2.61,3.61,2.61,6.2c0,2.03-0.56,3.79-1.67,5.29C218.6,31.75,216.86,32.84,214.5,33.52z M219.12,25.01
			c0-1.16-0.2-2.16-0.59-3c-0.39-0.84-0.94-1.52-1.64-2.05c-0.7-0.53-1.53-0.92-2.49-1.18c-0.96-0.26-2.02-0.39-3.18-0.39h-6.36
			v13.7h5.92c2.51,0,4.53-0.58,6.06-1.74C218.35,29.2,219.12,27.41,219.12,25.01z"/>
		<path class="st0" d="M222.28,47.72h-2.84c-0.32,0-0.61-0.17-0.76-0.45l-6.8-12.36h-6.08v11.94c0,0.48-0.39,0.87-0.87,0.87h-2.27
			c-0.48,0-0.87-0.39-0.87-0.87v-30.4c0-0.48,0.39-0.87,0.87-0.87h8.47c3.55,0,6.32,0.85,8.22,2.53c1.93,1.71,2.91,4.01,2.91,6.85
			c0,2.21-0.62,4.16-1.84,5.81c-1.05,1.42-2.61,2.51-4.64,3.24l7.26,12.4c0.16,0.27,0.16,0.6,0,0.87
			C222.88,47.55,222.59,47.72,222.28,47.72z M219.96,45.98h0.81L213.75,34c-0.08-0.13-0.12-0.28-0.12-0.44
			c0-0.39,0.26-0.77,0.63-0.88c2.16-0.62,3.77-1.61,4.76-2.95c1.01-1.36,1.5-2.92,1.5-4.77c0-2.35-0.76-4.17-2.32-5.55
			c-1.57-1.39-3.95-2.09-7.07-2.09h-7.6v28.66h0.53V34.04c0-0.48,0.39-0.87,0.87-0.87h7.46c0.32,0,0.61,0.17,0.76,0.45L219.96,45.98
			z M210.77,32.97h-5.92c-0.48,0-0.87-0.39-0.87-0.87V18.4c0-0.48,0.39-0.87,0.87-0.87h6.36c1.23,0,2.38,0.14,3.41,0.41
			c1.06,0.29,2,0.73,2.79,1.32c0.81,0.61,1.45,1.41,1.91,2.37c0.44,0.95,0.67,2.08,0.67,3.37c0,2.68-0.89,4.71-2.63,6.04
			C215.68,32.32,213.46,32.97,210.77,32.97z M205.72,31.23h5.05c2.31,0,4.17-0.53,5.53-1.57c1.31-1,1.95-2.52,1.95-4.66
			c0-1.03-0.17-1.91-0.51-2.63c-0.33-0.71-0.78-1.28-1.38-1.72c-0.61-0.46-1.35-0.8-2.2-1.03c-0.88-0.24-1.88-0.36-2.96-0.36h-5.49
			V31.23z"/>
	</g>
</g>
<g>
	<g>
		<path class="st0" d="M230.86,16.45v30.4h-2.39v-30.4H230.86z"/>
		<path class="st0" d="M230.86,47.72h-2.39c-0.48,0-0.87-0.39-0.87-0.87v-30.4c0-0.48,0.39-0.87,0.87-0.87h2.39
			c0.48,0,0.87,0.39,0.87,0.87v30.4C231.73,47.33,231.34,47.72,230.86,47.72z M229.33,45.98h0.65V17.32h-0.65V45.98z"/>
	</g>
</g>
</svg>
