<?xml version="1.0" encoding="utf-8"?>
<!-- Generator: Adobe Illustrator 24.0.0, SVG Export Plug-In . SVG Version: 6.00 Build 0)  -->
<svg version="1.1" id="레이어_1" xmlns="http://www.w3.org/2000/svg" xmlns:xlink="http://www.w3.org/1999/xlink" x="0px"
	 y="0px" viewBox="0 0 566.9 141.7" style="enable-background:new 0 0 566.9 141.7;" xml:space="preserve">
<style type="text/css">
	.st0{fill:#377DFF;}
	.st1{fill:#377DFF;stroke:#3D70B6;stroke-linejoin:round;stroke-miterlimit:10;}
</style>
<g>
	<g>
		<path class="st0" d="M55.1,109.7c-2,0-3.6-1.5-3.6-3.3V34.9c0-1.8,1.6-3.3,3.6-3.3c2,0,3.6,1.5,3.6,3.3v71.5
			C58.7,108.3,57.1,109.7,55.1,109.7z"/>
		<path class="st0" d="M55.1,110.8c-2.7,0-4.8-2-4.8-4.4V34.9c0-2.4,2.2-4.4,4.8-4.4c2.7,0,4.8,2,4.8,4.4v71.5
			C59.9,108.8,57.7,110.8,55.1,110.8z M55.1,32.7c-1.4,0-2.5,1-2.5,2.2v71.5c0,1.2,1.1,2.2,2.5,2.2c1.4,0,2.5-1,2.5-2.2V34.9
			C57.5,33.7,56.4,32.7,55.1,32.7z"/>
	</g>
	<g>
		<path class="st0" d="M103.4,38.3H55.1c-1.4,0-2.6-0.7-3.2-1.8c-0.6-1.1-0.5-2.5,0.3-3.5l24-29.6C76.9,2.5,78,2,79.1,2l0,0
			c1.2,0,2.2,0.5,2.9,1.3L106.3,33c0.8,1,1,2.4,0.4,3.5C106,37.6,104.8,38.3,103.4,38.3z M62.3,31.6h33.8l-17-20.7L62.3,31.6z"/>
		<path class="st0" d="M103.4,39.4H55.1c-1.8,0-3.5-0.9-4.3-2.4c-0.8-1.5-0.7-3.3,0.4-4.6l24-29.6c0.9-1.1,2.3-1.8,3.9-1.8
			c1.5,0,2.9,0.6,3.9,1.8l24.3,29.7c1.1,1.3,1.3,3.1,0.5,4.6C106.9,38.4,105.2,39.4,103.4,39.4z M79.1,3.1c-0.8,0-1.5,0.3-2,0.9
			l-24,29.7c-0.6,0.7-0.6,1.6-0.2,2.3c0.4,0.8,1.2,1.2,2.2,1.2h48.3c0.9,0,1.8-0.5,2.2-1.2c0.4-0.7,0.3-1.7-0.2-2.3L81.1,4
			C80.6,3.4,79.9,3.1,79.1,3.1z M96.1,32.7H62.3c-0.4,0-0.9-0.2-1.1-0.6c-0.2-0.4-0.2-0.8,0.1-1.1l16.8-20.7
			c0.2-0.3,0.6-0.4,0.9-0.4c0.3,0.1,0.7,0.2,1,0.4l17,20.7c0.3,0.3,0.3,0.8,0.1,1.1C97,32.5,96.6,32.7,96.1,32.7z M64.7,30.5h29.1
			L79.1,12.7L64.7,30.5z"/>
	</g>
	<g>
		<path class="st0" d="M103.4,109.7c-2,0-3.6-1.5-3.6-3.3V34.9c0-1.8,1.6-3.3,3.6-3.3c2,0,3.6,1.5,3.6,3.3v71.5
			C107,108.3,105.3,109.7,103.4,109.7z"/>
		<path class="st0" d="M103.4,110.8c-2.7,0-4.8-2-4.8-4.4V34.9c0-2.4,2.2-4.4,4.8-4.4s4.8,2,4.8,4.4v71.5
			C108.2,108.9,106,110.8,103.4,110.8z M103.4,32.7c-1.4,0-2.5,1-2.5,2.2v71.5c0,1.2,1.1,2.2,2.5,2.2c1.3,0,2.4-1,2.5-2.3V34.9
			C105.8,33.7,104.7,32.7,103.4,32.7z"/>
	</g>
	<g>
		<path class="st0" d="M103.4,86.6H55.1c-2,0-3.6-1.5-3.6-3.3s1.6-3.3,3.6-3.3h48.3c2,0,3.6,1.5,3.6,3.3S105.4,86.6,103.4,86.6z"/>
		<path class="st0" d="M103.4,87.7H55.1c-2.7,0-4.8-2-4.8-4.4c0-2.4,2.2-4.4,4.8-4.4h48.3c2.7,0,4.8,2,4.8,4.4
			C108.2,85.7,106,87.7,103.4,87.7z M55.1,81c-1.4,0-2.5,1-2.5,2.2s1.1,2.2,2.5,2.2h48.3c1.4,0,2.5-1,2.5-2.2s-1.1-2.2-2.5-2.2H55.1
			z"/>
	</g>
	<g>
		<path class="st1" d="M21.7,91.3"/>
		<path class="st1" d="M55.1,50"/>
		<path class="st1" d="M28.9,105"/>
		<path class="st1" d="M55.1,70.1"/>
		<path class="st1" d="M38,98.2"/>
		<g>
			<path class="st0" d="M26.5,108.4H14c-6.1,0-11.1-4.6-11.1-10.2c0-5.6,5-10.2,11.1-10.2h5.1c0.6,0,1.2-0.2,1.7-0.6l31.1-39.6
				l5.9,3.9L26.5,91.6c-0.1,0.1-0.3,0.3-0.4,0.4c-1.9,1.7-4.3,2.6-7,2.6H14c-2.1,0-3.9,1.6-3.9,3.5c0,2,1.7,3.5,3.9,3.5h12.5
				c0.5,0,1-0.2,1.4-0.5l24.5-31.4l5.9,3.9l-24.7,31.6c-0.1,0.1-0.3,0.3-0.4,0.4C31.4,107.4,29,108.4,26.5,108.4z"/>
			<path class="st0" d="M26.5,109.5H14c-6.8,0-12.3-5.1-12.3-11.3c0-6.2,5.5-11.3,12.3-11.3h5.1c0.3,0,0.6-0.1,0.8-0.2l31-39.4
				c0.4-0.5,1.1-0.6,1.7-0.2l5.9,3.9c0.3,0.2,0.4,0.4,0.5,0.7c0,0.3,0,0.6-0.2,0.8L27,92.7c-2.2,2-4.9,3-7.9,3H14
				c-1.5,0-2.7,1.1-2.7,2.5c0,1.4,1.2,2.5,2.7,2.5h12.5c0.2,0,0.4,0,0.6-0.1l24.4-31.2c0.4-0.5,1.1-0.6,1.7-0.3l5.9,3.9
				c0.5,0.3,0.7,1,0.3,1.5L34.6,106c0,0-0.1,0.2-0.2,0.2c-0.1,0.1-0.2,0.3-0.3,0.4C32,108.4,29.3,109.5,26.5,109.5z M14,89
				c-5.5,0-10,4.1-10,9.1c0,5,4.5,9.1,10,9.1h12.5c2.2,0,4.3-0.8,5.9-2.3c0,0,0.1-0.1,0.2-0.2L56.6,74l-4-2.6l-23.8,30.5
				c-0.1,0.1-0.1,0.1-0.2,0.2c-0.6,0.5-1.4,0.7-2.2,0.7H14c-2.8,0-5.1-2.1-5.1-4.6c0-2.6,2.3-4.6,5.1-4.6h5.1c2.3,0,4.5-0.8,6.1-2.3
				l0.3-0.3L56.2,52l-4-2.6L21.8,88c-0.1,0.1-0.1,0.1-0.2,0.2c-0.7,0.5-1.5,0.8-2.4,0.8H14z"/>
		</g>
	</g>
	<g>
		<path class="st0" d="M79.2,72.8c-7.8,0-14.1-6.3-14.1-14s6.3-14,14.1-14s14.1,6.3,14.1,14C93.3,66.6,87,72.8,79.2,72.8z
			 M79.2,51.3c-4.2,0-7.6,3.4-7.6,7.5s3.4,7.5,7.6,7.5c4.2,0,7.6-3.4,7.6-7.5S83.4,51.3,79.2,51.3z"/>
		<path class="st0" d="M79.2,73.9c-8.4,0-15.2-6.7-15.2-15s6.8-15,15.2-15s15.1,6.7,15.1,15S87.6,73.9,79.2,73.9z M79.2,46
			c-7.2,0-13,5.8-13,12.9c0,7.1,5.8,12.9,13,12.9c7.2,0,13-5.8,13-12.9C92.2,51.8,86.4,46,79.2,46z M79.2,67.5
			c-4.8,0-8.7-3.9-8.7-8.6c0-4.7,3.9-8.6,8.7-8.6c4.8,0,8.7,3.9,8.7,8.6C87.9,63.6,84,67.5,79.2,67.5z M79.2,52.4
			c-3.6,0-6.6,2.9-6.6,6.5c0,3.6,2.9,6.5,6.6,6.5c3.6,0,6.6-2.9,6.6-6.5C85.8,55.3,82.8,52.4,79.2,52.4z"/>
	</g>
</g>
<g>
	<g>
		<g>
			<g>
				<path class="st0" d="M152.4,102.6h-16.2V39.1h16.2c5.6,0,10.5,0.8,14.7,2.3c4.2,1.5,7.6,3.7,10.3,6.4c2.7,2.7,4.7,6,6,9.9
					c1.3,3.9,1.9,8.1,1.9,12.7c0,5.1-0.8,9.6-2.3,13.6c-1.5,4-3.7,7.4-6.6,10.1c-2.8,2.8-6.3,4.9-10.4,6.3
					C162,101.9,157.4,102.6,152.4,102.6z M151.4,43.1h-10.5v55.5h10c4.6,0,8.8-0.6,12.4-1.8c3.6-1.2,6.7-3,9.3-5.4s4.5-5.3,5.8-8.9
					c1.4-3.5,2-7.6,2-12.2c0-8.8-2.4-15.6-7.2-20.3C168.5,45.5,161.2,43.1,151.4,43.1z"/>
				<path class="st0" d="M152.4,107.5h-16.2c-2.7,0-4.9-2.2-4.9-4.9V39.1c0-2.7,2.2-4.9,4.9-4.9h16.2c6.2,0,11.7,0.9,16.4,2.6
					c4.8,1.8,8.9,4.3,12.1,7.5c3.2,3.2,5.6,7.2,7.2,11.8c1.5,4.3,2.2,9.2,2.2,14.3c0,5.7-0.9,10.8-2.6,15.3
					c-1.8,4.6-4.4,8.6-7.7,11.9c-3.3,3.2-7.4,5.7-12.1,7.4C163.2,106.7,158,107.5,152.4,107.5z M145.8,93.8h5.1
					c4.1,0,7.7-0.5,10.9-1.6c2.9-1,5.5-2.4,7.5-4.3c2-1.8,3.5-4.2,4.6-7c1.1-2.9,1.7-6.4,1.7-10.4c0-7.5-1.9-13-5.7-16.8
					c-3.8-3.8-10-5.7-18.4-5.7h-5.6V93.8z"/>
			</g>
			<g>
				<path class="st0" d="M152.4,104.4h-16.2c-1,0-1.8-0.8-1.8-1.8V39.1c0-1,0.8-1.8,1.8-1.8h16.2c5.8,0,11,0.8,15.3,2.4
					c4.4,1.6,8.1,3.9,10.9,6.8c2.9,2.9,5.1,6.5,6.4,10.6c1.4,4,2,8.5,2,13.3c0,5.3-0.8,10.1-2.4,14.2c-1.6,4.2-4,7.8-7,10.8
					s-6.7,5.2-11,6.7C162.4,103.7,157.6,104.4,152.4,104.4z M138,100.8h14.3c4.8,0,9.3-0.7,13.1-2c3.8-1.3,7.1-3.3,9.7-5.9
					c2.7-2.6,4.7-5.7,6.1-9.5c1.4-3.8,2.2-8.1,2.2-12.9c0-4.4-0.6-8.5-1.9-12.2c-1.2-3.6-3.1-6.7-5.6-9.2c-2.5-2.5-5.7-4.5-9.6-6
					c-3.9-1.4-8.7-2.2-14.1-2.2H138V100.8z M150.9,100.5h-10c-1,0-1.8-0.8-1.8-1.8V43.1c0-1,0.8-1.8,1.8-1.8h10.5
					c10.2,0,18,2.5,23.1,7.6c5.1,5.1,7.7,12.3,7.7,21.6c0,4.8-0.7,9.1-2.2,12.8c-1.4,3.8-3.6,7-6.3,9.5c-2.7,2.5-6.1,4.5-9.9,5.8
					C160.1,99.8,155.7,100.5,150.9,100.5z M142.7,96.8h8.2c4.4,0,8.4-0.6,11.8-1.7c3.4-1.1,6.3-2.8,8.6-5c2.3-2.2,4.1-4.9,5.4-8.2
					c1.3-3.3,1.9-7.2,1.9-11.5c0-8.3-2.2-14.6-6.7-19c-4.4-4.3-11.3-6.6-20.6-6.6h-8.7L142.7,96.8L142.7,96.8z"/>
				<path class="st0" d="M152.4,109.3h-16.2c-3.7,0-6.7-3-6.7-6.7V39.1c0-3.7,3-6.7,6.7-6.7h16.2c6.4,0,12.1,0.9,17,2.7
					c5,1.8,9.3,4.5,12.7,8c3.4,3.5,6,7.7,7.6,12.5c1.5,4.5,2.3,9.5,2.3,14.9c0,5.9-0.9,11.2-2.7,16c-1.9,4.9-4.6,9.1-8.2,12.5
					c-3.5,3.4-7.8,6.1-12.8,7.8C163.5,108.5,158.2,109.3,152.4,109.3z M147.6,91.9h3.3c3.9,0,7.3-0.5,10.3-1.5
					c2.7-0.9,5-2.2,6.8-3.9c1.8-1.7,3.2-3.8,4.2-6.3c1.1-2.7,1.6-6,1.6-9.8c0-6.9-1.7-12.1-5.2-15.5c-3.5-3.4-9.3-5.2-17.2-5.2h-3.8
					V91.9z"/>
			</g>
		</g>
	</g>
</g>
<g>
	<g>
		<g>
			<g>
				<path class="st0" d="M244.9,102.7h-38.5V39h38.4v4.2h-33.7V66h31.3v4.2h-31.3v28.2h33.8V102.7z"/>
				<path class="st0" d="M244.9,107.6h-38.5c-2.7,0-4.9-2.2-4.9-4.9V39c0-2.7,2.2-4.9,4.9-4.9h38.4c2.7,0,4.9,2.2,4.9,4.9v4.2
					c0,2.7-2.2,4.9-4.9,4.9H216v13h26.4c2.7,0,4.9,2.2,4.9,4.9v4.2c0,2.7-2.2,4.9-4.9,4.9H216v18.4h28.9c2.7,0,4.9,2.2,4.9,4.9v4.2
					C249.8,105.4,247.6,107.6,244.9,107.6z"/>
			</g>
			<g>
				<path class="st0" d="M244.9,104.5h-38.5c-1,0-1.8-0.8-1.8-1.8V39c0-1,0.8-1.8,1.8-1.8h38.4c1,0,1.8,0.8,1.8,1.8v4.2
					c0,1-0.8,1.8-1.8,1.8h-31.9v19.2h29.5c1,0,1.8,0.8,1.8,1.8v4.2c0,1-0.8,1.8-1.8,1.8h-29.5v24.5h32c1,0,1.8,0.8,1.8,1.8v4.2
					C246.7,103.7,245.9,104.5,244.9,104.5z M208.2,100.9h34.9v-0.6h-32c-1,0-1.8-0.8-1.8-1.8V70.3c0-1,0.8-1.8,1.8-1.8h29.5v-0.6
					h-29.5c-1,0-1.8-0.8-1.8-1.8V43.3c0-1,0.8-1.8,1.8-1.8H243v-0.6h-34.8V100.9z"/>
				<path class="st0" d="M244.9,109.4h-38.5c-3.7,0-6.7-3-6.7-6.7V39c0-3.7,3-6.7,6.7-6.7h38.4c3.7,0,6.7,3,6.7,6.7v4.2
					c0,3.7-3,6.7-6.7,6.7h-27v9.4h24.6c3.7,0,6.7,3,6.7,6.7v4.2c0,3.7-3,6.7-6.7,6.7h-24.6v14.8h27.1c3.7,0,6.7,3,6.7,6.7v4.2
					c0,1.7-0.6,3.4-1.9,4.7C248.4,108.7,246.7,109.4,244.9,109.4z"/>
			</g>
		</g>
	</g>
</g>
<g>
	<g>
		<g>
			<g>
				<path class="st0" d="M300.9,98.4v4.2h-35.1V39.1h4.8v59.3H300.9z"/>
				<path class="st0" d="M300.9,107.5h-35.1c-2.7,0-4.9-2.2-4.9-4.9V39.1c0-2.7,2.2-4.9,4.9-4.9h4.8c2.7,0,4.9,2.2,4.9,4.9v54.4
					h25.4c2.7,0,4.9,2.2,4.9,4.9v4.2C305.7,105.3,303.5,107.5,300.9,107.5z"/>
			</g>
			<g>
				<path class="st0" d="M300.9,104.4h-35.1c-1,0-1.8-0.8-1.8-1.8V39.1c0-1,0.8-1.8,1.8-1.8h4.8c1,0,1.8,0.8,1.8,1.8v57.4h28.5
					c1,0,1.8,0.8,1.8,1.8v4.2C302.7,103.6,301.9,104.4,300.9,104.4z M267.5,100.8H299v-0.6h-28.5c-1,0-1.8-0.8-1.8-1.8V40.9h-1.2
					V100.8z"/>
				<path class="st0" d="M300.9,109.3h-35.1c-3.7,0-6.7-3-6.7-6.7V39.1c0-3.7,3-6.7,6.7-6.7h4.8c3.7,0,6.7,3,6.7,6.7v52.6h23.6
					c3.7,0,6.7,3,6.7,6.7v4.2C307.6,106.3,304.5,109.3,300.9,109.3z"/>
			</g>
		</g>
	</g>
</g>
<g>
	<g>
		<g>
			<g>
				<path class="st0" d="M324.9,39.1v63.5h-5V39.1C319.9,39.1,324.9,39.1,324.9,39.1z"/>
				<path class="st0" d="M324.9,107.5h-5c-2.7,0-4.9-2.2-4.9-4.9V39.1c0-2.7,2.2-4.9,4.9-4.9h5c2.7,0,4.9,2.2,4.9,4.9v63.5
					C329.8,105.3,327.6,107.5,324.9,107.5z"/>
			</g>
			<g>
				<path class="st0" d="M324.9,104.4h-5c-1,0-1.8-0.8-1.8-1.8V39.1c0-1,0.8-1.8,1.8-1.8h5c1,0,1.8,0.8,1.8,1.8v63.5
					C326.7,103.6,325.9,104.4,324.9,104.4z M321.7,100.8h1.4V40.9h-1.4V100.8z"/>
				<path class="st0" d="M324.9,109.3h-5c-3.7,0-6.7-3-6.7-6.7V39.1c0-3.7,3-6.7,6.7-6.7h5c3.7,0,6.7,3,6.7,6.7v63.5
					C331.6,106.3,328.6,109.3,324.9,109.3z"/>
			</g>
		</g>
	</g>
</g>
<g>
	<g>
		<g>
			<g>
				<path class="st0" d="M388.6,98.4l-0.1-8.6V39.1h4.7v63.5H386l-28.2-51l-4-8.2l0.1,8.6v50.6h-4.7V39.1h7.2l28.2,51L388.6,98.4z"
					/>
				<path class="st0" d="M393.2,107.5H386c-1.8,0-3.4-1-4.3-2.5l-22.9-41.5v39.1c0,2.7-2.2,4.9-4.9,4.9h-4.7c-2.7,0-4.9-2.2-4.9-4.9
					V39.1c0-2.7,2.2-4.9,4.9-4.9h7.2c1.8,0,3.4,1,4.3,2.5l22.9,41.5V39.1c0-2.7,2.2-4.9,4.9-4.9h4.7c2.7,0,4.9,2.2,4.9,4.9v63.5
					C398.1,105.3,395.9,107.5,393.2,107.5z"/>
			</g>
			<g>
				<path class="st0" d="M393.2,104.4H386c-0.7,0-1.3-0.4-1.6-0.9l-28.2-51l-0.5-1V52v50.7c0,1-0.8,1.8-1.8,1.8h-4.7
					c-1,0-1.8-0.8-1.8-1.8V39.1c0-1,0.8-1.8,1.8-1.8h7.2c0.7,0,1.3,0.4,1.6,0.9l28.2,51l0.5,1v-0.6V39.1c0-1,0.8-1.8,1.8-1.8h4.7
					c1,0,1.8,0.8,1.8,1.8v63.5C395,103.6,394.2,104.4,393.2,104.4z M387.1,100.8h4.3V40.9h-1.1v48.8l0.1,8.6c0,0.9-0.6,1.6-1.4,1.8
					c-0.8,0.2-1.7-0.2-2-1l-4-8.2l-27.6-50H351v59.9h1.1V52l-0.1-8.6c0-0.9,0.6-1.6,1.4-1.8c0.8-0.2,1.7,0.2,2,1l4,8.2L387.1,100.8z
					"/>
				<path class="st0" d="M353.9,109.3h-4.7c-3.7,0-6.7-3-6.7-6.7V39.1c0-3.7,3-6.7,6.7-6.7h7.2c2.5,0,4.7,1.4,5.9,3.5l19.5,35.3
					V39.1c0-3.7,3-6.7,6.7-6.7h4.7c3.7,0,6.7,3,6.7,6.7v63.5c0,3.7-3,6.7-6.7,6.7H386c-2.5,0-4.7-1.4-5.9-3.5l-19.5-35.3v32.2
					C360.6,106.3,357.6,109.3,353.9,109.3z"/>
			</g>
		</g>
	</g>
</g>
<g>
	<g>
		<g>
			<g>
				<path class="st0" d="M441.9,103.4c-4.4,0-8.4-0.8-11.8-2.4c-3.4-1.6-6.2-3.8-8.5-6.7c-2.3-2.9-4-6.3-5.2-10.3
					c-1.1-4-1.7-8.3-1.7-13.1s0.6-9.1,1.7-13.1s2.9-7.4,5.2-10.3c2.3-2.9,5.1-5.1,8.5-6.8s7.3-2.5,11.8-2.5c4.4,0,8.3,0.8,11.7,2.5
					c3.4,1.6,6.3,3.9,8.6,6.8c2.3,2.9,4.1,6.3,5.2,10.3c1.2,4,1.8,8.3,1.8,13.1s-0.6,9.1-1.8,13s-2.9,7.4-5.2,10.2
					c-2.3,2.9-5.2,5.1-8.6,6.7C450.2,102.6,446.3,103.4,441.9,103.4z M441.8,99.2c3.7,0,6.9-0.7,9.7-2.1c2.8-1.4,5.2-3.4,7.1-5.9
					c1.9-2.5,3.3-5.5,4.3-8.9c1-3.4,1.4-7.1,1.4-11.2c0-4.1-0.5-7.9-1.4-11.4s-2.4-6.5-4.3-9c-1.9-2.5-4.2-4.5-7.1-6
					s-6.1-2.2-9.7-2.2c-3.7,0-6.9,0.7-9.7,2.2c-2.8,1.4-5.1,3.4-6.9,6c-1.9,2.5-3.3,5.5-4.2,9c-1,3.5-1.4,7.3-1.4,11.4
					c0,4.1,0.5,7.8,1.4,11.2c1,3.4,2.4,6.4,4.2,8.9c1.9,2.5,4.2,4.5,6.9,5.9C434.9,98.4,438.1,99.2,441.8,99.2z"/>
				<path class="st0" d="M441.9,108.3c-5.2,0-9.8-1-13.9-2.9c-4.1-1.9-7.5-4.7-10.2-8.1c-2.7-3.4-4.7-7.4-6-12
					c-1.3-4.4-1.9-9.3-1.9-14.4c0-5.2,0.6-10,1.9-14.4c1.3-4.6,3.3-8.6,6-12c2.7-3.4,6.2-6.2,10.2-8.1c4.1-2,8.7-2.9,13.9-2.9
					c5.1,0,9.8,1,13.8,3c4.1,1.9,7.5,4.7,10.3,8.2c2.7,3.4,4.8,7.4,6.1,12c1.3,4.4,2,9.2,2,14.5c0,5.2-0.7,10.1-2,14.4
					c-1.4,4.5-3.4,8.5-6.1,11.9c-2.8,3.4-6.2,6.2-10.3,8.1C451.6,107.3,447,108.3,441.9,108.3z M441.8,47.4c-2.9,0-5.4,0.5-7.4,1.6
					c-2.1,1.1-3.8,2.6-5.3,4.5c-1.5,2.1-2.7,4.5-3.5,7.4c-0.8,3-1.3,6.4-1.3,10.1c0,3.6,0.4,6.9,1.3,9.9c0.8,2.9,1.9,5.3,3.5,7.3
					c1.4,1.9,3.1,3.4,5.3,4.5c2,1,4.6,1.6,7.4,1.6c2.9,0,5.4-0.5,7.6-1.6c2.2-1.1,3.9-2.5,5.3-4.4c1.5-2,2.7-4.5,3.5-7.3
					c0.8-3,1.3-6.3,1.3-9.9c0-3.7-0.4-7.1-1.3-10.1c-0.8-2.9-2-5.4-3.5-7.4c-1.5-2-3.2-3.4-5.4-4.5
					C447.2,47.9,444.7,47.4,441.8,47.4z"/>
			</g>
			<g>
				<path class="st0" d="M441.9,105.2c-4.7,0-8.9-0.9-12.6-2.6c-3.6-1.7-6.7-4.2-9.1-7.2c-2.4-3-4.3-6.7-5.5-10.9
					c-1.2-4.1-1.8-8.7-1.8-13.6c0-4.9,0.6-9.5,1.8-13.6c1.2-4.2,3.1-7.9,5.5-10.9c2.4-3.1,5.5-5.5,9.1-7.3c3.6-1.8,7.9-2.6,12.6-2.6
					c4.7,0,8.9,0.9,12.5,2.6c3.7,1.8,6.7,4.2,9.2,7.3c2.4,3.1,4.3,6.8,5.6,10.9c1.2,4.1,1.9,8.7,1.9,13.6c0,4.9-0.6,9.5-1.9,13.6
					c-1.3,4.2-3.1,7.8-5.6,10.9c-2.5,3.1-5.6,5.5-9.2,7.2C450.7,104.3,446.5,105.2,441.9,105.2z M441.9,40.1c-4.2,0-7.9,0.8-11,2.3
					c-3.1,1.5-5.8,3.6-7.9,6.3c-2.1,2.7-3.8,5.9-4.8,9.7c-1.1,3.8-1.7,8-1.7,12.6s0.6,8.8,1.7,12.6c1.1,3.7,2.7,7,4.8,9.7
					c2.1,2.7,4.7,4.7,7.9,6.2c3.1,1.5,6.8,2.2,11,2.2c4.1,0,7.8-0.8,10.9-2.2c3.2-1.5,5.8-3.6,8-6.2c2.2-2.7,3.8-5.9,4.9-9.6
					c1.1-3.8,1.7-8,1.7-12.5s-0.6-8.8-1.7-12.6c-1.1-3.7-2.8-7-4.9-9.7c-2.1-2.7-4.8-4.8-8-6.3C449.7,40.9,446,40.1,441.9,40.1z
					 M441.8,101c-3.9,0-7.5-0.8-10.5-2.3c-3-1.5-5.6-3.7-7.6-6.4c-2-2.7-3.5-5.9-4.5-9.5c-1-3.6-1.5-7.5-1.5-11.7
					c0-4.3,0.5-8.3,1.5-11.9c1-3.7,2.5-6.9,4.5-9.6c2-2.8,4.6-5,7.6-6.5c3-1.6,6.5-2.4,10.5-2.4c3.9,0,7.5,0.8,10.6,2.4
					c3,1.6,5.6,3.7,7.7,6.5c2,2.7,3.6,5.9,4.6,9.6c1,3.6,1.5,7.6,1.5,11.9c0,4.2-0.5,8.1-1.5,11.7c-1,3.6-2.5,6.8-4.6,9.5
					c-2,2.7-4.6,4.9-7.7,6.4C449.3,100.2,445.7,101,441.8,101z M441.8,44.3c-3.4,0-6.3,0.6-8.8,2c-2.5,1.3-4.6,3.1-6.3,5.4
					c-1.7,2.4-3,5.2-3.9,8.4c-0.9,3.3-1.4,7-1.4,10.9c0,3.9,0.5,7.5,1.4,10.7c0.9,3.2,2.2,6,3.9,8.3c1.7,2.3,3.8,4.1,6.3,5.3
					c2.5,1.3,5.5,1.9,8.8,1.9c3.4,0,6.4-0.6,8.9-1.9c2.5-1.3,4.7-3.1,6.4-5.3c1.8-2.3,3.1-5.1,4-8.3c0.9-3.2,1.4-6.9,1.4-10.7
					c0-3.9-0.5-7.6-1.4-10.9c-0.9-3.2-2.2-6.1-4-8.4c-1.7-2.3-3.9-4.1-6.4-5.4C448.2,45,445.2,44.3,441.8,44.3z"/>
				<path class="st0" d="M441.9,110.1c-5.4,0-10.4-1-14.6-3.1c-4.3-2-8-4.9-10.9-8.6c-2.8-3.5-4.9-7.7-6.3-12.6c-1.3-4.6-2-9.7-2-15
					c0-5.4,0.7-10.4,2-15c1.4-4.8,3.5-9,6.4-12.6c2.9-3.7,6.6-6.6,10.9-8.6c4.2-2.1,9.2-3.1,14.7-3.1c5.4,0,10.3,1,14.6,3.1
					c4.3,2.1,8,5,10.9,8.7c2.8,3.6,5,7.8,6.5,12.6c1.4,4.6,2.1,9.6,2.1,15c0,5.4-0.7,10.4-2.1,15c-1.4,4.8-3.6,9-6.5,12.5
					c-3,3.7-6.6,6.6-11,8.6C452.1,109.1,447.2,110.1,441.9,110.1z M441.8,49.2c-2.6,0-4.8,0.5-6.5,1.4c-1.9,1-3.4,2.3-4.6,4
					c-1.4,1.9-2.5,4.2-3.2,6.8c-0.8,2.9-1.2,6.1-1.2,9.6c0,3.5,0.4,6.6,1.2,9.4c0.7,2.6,1.8,4.9,3.2,6.7c1.3,1.7,2.8,3,4.6,3.9
					c1.8,0.9,4,1.4,6.6,1.4c2.6,0,4.9-0.5,6.7-1.4c1.9-0.9,3.5-2.3,4.7-3.9c1.4-1.8,2.5-4.1,3.2-6.6c0.8-2.8,1.2-6,1.2-9.4
					c0-3.5-0.4-6.7-1.2-9.6c-0.7-2.7-1.8-5-3.2-6.8c-1.3-1.7-2.9-3.1-4.7-4C446.6,49.7,444.4,49.2,441.8,49.2z"/>
			</g>
		</g>
	</g>
</g>
<g>
	<g>
		<g>
			<g>
				<path class="st0" d="M515.5,74.8L515.5,74.8l16.3,27.8h-5.9l-14.7-26.8h-15.6v26.8h-4.7V39.1h17.7c7,0,12.3,1.6,16,4.8
					c3.6,3.2,5.5,7.5,5.5,13c0,4.2-1.2,7.9-3.5,11C524,71.1,520.4,73.4,515.5,74.8z M525.1,57c0-2.4-0.4-4.5-1.2-6.3
					c-0.8-1.8-2-3.2-3.4-4.3c-1.5-1.1-3.2-1.9-5.2-2.5c-2-0.5-4.2-0.8-6.6-0.8h-13.3v28.6h12.4c5.2,0,9.5-1.2,12.7-3.6
					C523.5,65.7,525.1,62,525.1,57z"/>
				<path class="st0" d="M531.7,107.5h-5.9c-1.8,0-3.4-1-4.3-2.5l-13.3-24.2h-7.8v21.9c0,2.7-2.2,4.9-4.9,4.9h-4.7
					c-2.7,0-4.9-2.2-4.9-4.9V39.1c0-2.7,2.2-4.9,4.9-4.9h17.7c8.2,0,14.7,2,19.2,6.1c4.7,4.2,7.1,9.8,7.1,16.6c0,5.3-1.5,10-4.4,14
					c-1.9,2.6-4.5,4.7-7.8,6.4l13.4,22.9c0.9,1.5,0.9,3.4,0,4.9C535.1,106.6,533.5,107.5,531.7,107.5z M500.2,66.9h7.5
					c4.1,0,7.4-0.9,9.7-2.6c0.7-0.5,2.8-2.2,2.8-7.3c0-1.7-0.3-3.1-0.8-4.2c-0.5-1-1.1-1.8-1.9-2.4c-1-0.7-2.1-1.3-3.5-1.6
					c-1.6-0.4-3.4-0.6-5.4-0.6h-8.4V66.9z"/>
			</g>
			<g>
				<path class="st0" d="M531.7,104.4h-5.9c-0.7,0-1.3-0.4-1.6-0.9L510,77.7h-12.7v24.9c0,1-0.8,1.8-1.8,1.8h-4.7
					c-1,0-1.8-0.8-1.8-1.8V39.1c0-1,0.8-1.8,1.8-1.8h17.7c7.4,0,13.2,1.8,17.2,5.3c4,3.6,6.1,8.4,6.1,14.3c0,4.6-1.3,8.7-3.8,12.1
					c-2.2,3-5.5,5.2-9.7,6.8l15.2,25.9c0.3,0.6,0.3,1.3,0,1.8C533,104.1,532.4,104.4,531.7,104.4z M526.9,100.8h1.7l-14.7-25
					c-0.2-0.3-0.3-0.6-0.3-0.9c0-0.8,0.5-1.6,1.3-1.8c4.5-1.3,7.9-3.4,9.9-6.2c2.1-2.8,3.1-6.1,3.1-10c0-4.9-1.6-8.7-4.8-11.6
					c-3.3-2.9-8.3-4.4-14.8-4.4h-15.9v59.9h1.1V75.9c0-1,0.8-1.8,1.8-1.8h15.6c0.7,0,1.3,0.4,1.6,0.9L526.9,100.8z M507.7,73.6
					h-12.4c-1,0-1.8-0.8-1.8-1.8V43.2c0-1,0.8-1.8,1.8-1.8h13.3c2.6,0,5,0.3,7.1,0.9c2.2,0.6,4.2,1.5,5.8,2.8c1.7,1.3,3,2.9,4,5
					c0.9,2,1.4,4.3,1.4,7c0,5.6-1.9,9.8-5.5,12.6C517.9,72.3,513.3,73.6,507.7,73.6z M497.1,70h10.5c4.8,0,8.7-1.1,11.6-3.3
					c2.7-2.1,4.1-5.3,4.1-9.7c0-2.2-0.4-4-1.1-5.5c-0.7-1.5-1.6-2.7-2.9-3.6c-1.3-1-2.8-1.7-4.6-2.2c-1.8-0.5-3.9-0.8-6.2-0.8h-11.5
					L497.1,70L497.1,70z"/>
				<path class="st0" d="M531.7,109.3h-5.9c-2.5,0-4.7-1.3-5.9-3.5l-12.8-23.2h-4.9v20.1c0,3.7-3,6.7-6.7,6.7h-4.7
					c-3.7,0-6.7-3-6.7-6.7V39.1c0-3.7,3-6.7,6.7-6.7h17.7c8.7,0,15.5,2.2,20.4,6.5c5.1,4.5,7.7,10.7,7.7,18c0,5.7-1.6,10.7-4.8,15
					c-1.8,2.4-4,4.4-6.7,6l12.5,21.3c1.2,2.1,1.2,4.7,0,6.8C536.3,108.1,534.1,109.3,531.7,109.3z M502,65.1h5.7
					c3.7,0,6.6-0.8,8.6-2.3c1-0.8,2.2-2.1,2.2-5.9c0-1.4-0.2-2.6-0.6-3.4c-0.4-0.8-0.8-1.3-1.4-1.7c-0.8-0.6-1.8-1-3-1.4
					c-1.4-0.4-3.1-0.6-4.9-0.6H502V65.1z"/>
			</g>
		</g>
	</g>
</g>
<g>
	<g>
		<g>
			<g>
				<path class="st0" d="M556.8,39.1v63.5h-5V39.1C551.8,39.1,556.8,39.1,556.8,39.1z"/>
				<path class="st0" d="M556.8,107.5h-5c-2.7,0-4.9-2.2-4.9-4.9V39.1c0-2.7,2.2-4.9,4.9-4.9h5c2.7,0,4.9,2.2,4.9,4.9v63.5
					C561.7,105.3,559.5,107.5,556.8,107.5z"/>
			</g>
			<g>
				<path class="st0" d="M556.8,104.4h-5c-1,0-1.8-0.8-1.8-1.8V39.1c0-1,0.8-1.8,1.8-1.8h5c1,0,1.8,0.8,1.8,1.8v63.5
					C558.6,103.6,557.8,104.4,556.8,104.4z M553.6,100.8h1.4V40.9h-1.4V100.8z"/>
				<path class="st0" d="M556.8,109.3h-5c-3.7,0-6.7-3-6.7-6.7V39.1c0-3.7,3-6.7,6.7-6.7h5c3.7,0,6.7,3,6.7,6.7v63.5
					C563.5,106.3,560.5,109.3,556.8,109.3z"/>
			</g>
		</g>
	</g>
</g>
</svg>
